<svg xmlns="http://www.w3.org/2000/svg" xmlns:xlink="http://www.w3.org/1999/xlink" viewBox="0 0 138.1 94" enable-background="new 0 0 138.1 94"><pattern x="-877.9" y="-2110" width="82.1" height="82.1" patternUnits="userSpaceOnUse" viewBox="5.7 -87.8 82.1 82.1" overflow="visible"><path fill="none" d="M5.7-5.7v-82.1h82.1v82.1z"/><path fill="#A7A9AC" d="M91.2-43.3v-4.6h-91.2v4.6zM91.2-16v-4.5h-91.2v4.5zM91.2-70.7v-4.5h-91.2v4.5zM91.2-52.4v-4.6h-91.2v4.6zM91.2-25.1v-4.5h-91.2v4.5zM91.2-79.8v-4.6h-91.2v4.6zM47.9-91.2h-4.6v91.2h4.6zM75.2-91.2h-4.5v91.2h4.5zM20.5-91.2h-4.5v91.2h4.5zM57-91.2h-4.6v91.2h4.6zM84.4-91.2h-4.6v91.2h4.6zM29.6-91.2h-4.5v91.2h4.5z"/><path stroke="#000" stroke-width=".95" stroke-linecap="square" fill="none" d="M4.9-36.5h83.6M4.9-9.1h83.6M4.9-63.8h83.6M36.5-88.5v83.6M63.8-88.5v83.6M9.1-88.5v83.6"/><path fill="#4D4D4F" d="M20.5-70.7v-4.5h-4.5v4.5zM29.6-79.8v-4.6h-4.5v4.6zM29.6-70.7v-4.5h-4.5v4.5zM20.5-79.8v-4.6h-4.5v4.6zM47.9-70.7v-4.5h-4.6v4.5zM57-79.8v-4.6h-4.6v4.6zM57-70.7v-4.5h-4.6v4.5zM47.9-79.8v-4.6h-4.6v4.6zM75.2-70.7v-4.5h-4.5v4.5zM84.4-79.8v-4.6h-4.6v4.6zM84.4-70.7v-4.5h-4.6v4.5zM75.2-79.8v-4.6h-4.5v4.6zM20.5-43.3v-4.6h-4.5v4.6zM29.6-52.4v-4.6h-4.5v4.6zM29.6-43.3v-4.6h-4.5v4.6zM20.5-52.4v-4.6h-4.5v4.6zM47.9-43.3v-4.6h-4.6v4.6zM57-52.4v-4.6h-4.6v4.6zM57-43.3v-4.6h-4.6v4.6zM47.9-52.4v-4.6h-4.6v4.6zM75.2-43.3v-4.6h-4.5v4.6zM84.4-52.4v-4.6h-4.6v4.6zM84.4-43.3v-4.6h-4.6v4.6zM75.2-52.4v-4.6h-4.5v4.6zM20.5-16v-4.5h-4.5v4.5zM29.6-25.1v-4.5h-4.5v4.5zM29.6-16v-4.5h-4.5v4.5zM20.5-25.1v-4.5h-4.5v4.5zM47.9-16v-4.5h-4.6v4.5zM57-25.1v-4.5h-4.6v4.5zM57-16v-4.5h-4.6v4.5zM47.9-25.1v-4.5h-4.6v4.5zM75.2-16v-4.5h-4.5v4.5zM84.4-25.1v-4.5h-4.6v4.5zM84.4-16v-4.5h-4.6v4.5zM75.2-25.1v-4.5h-4.5v4.5z"/></pattern><path fill="#FDDFBB" d="M128.5 56.7c0 .4 2.2 4.7 2.2 5.2 0 .2-.3.4.1.4.5.1 1.4.2 1.4.2s-.1-2.5-.1-2.9c-.4-4.9-1-3.8-.7-5.3.2-1.6-2.5-.9-2.5-.9l-.4 3.3z"/><g fill="#BE1E2D"><path d="M13.9 50.9h10.7v6.5c0 .6-.1 1-.4 1.2-.3.2-.6.3-1.1.3h-17.7v-51.1c0-.5 0-.9.2-1.2.1-.3.4-.6.9-.7.5-.1 1.4-.2 2.6-.2h4.9v45.2zM35.1 44.6c0 2.5.3 4.3.9 5.5s1.9 1.8 3.9 1.8c.9 0 1.7-.1 2.5-.3.8-.2 1.4-.4 1.9-.6v-43.8c0-.4 0-.7.2-.9.1-.2.4-.4 1-.5.5 0 1.3-.1 2.5-.1h5v51.1c-.9.6-2.5 1.2-4.8 1.9s-5 1-8.3 1c-3 0-5.4-.4-7.2-1.2-1.8-.8-3.2-1.9-4.1-3.3-.9-1.4-1.6-3-1.9-4.9-.3-1.9-.5-3.8-.5-6v-37.1c0-.4 0-.7.2-.9.1-.2.4-.4 1-.5.5-.1 1.4-.2 2.6-.2h5.1v39zM56.6 7.2c0-.4.1-.6.2-.9s.4-.4 1-.5c.5-.1 1.4-.1 2.5-.2h5v21.8l8.3-21.3c1-.3 2-.4 3-.5s1.8-.1 2.5-.1c3 0 4.2.7 3.7 2.1l-8.8 20.8c2.8 2.6 4.9 6.4 6.2 11.3s2 10.8 2 17.6c0 .7-.2 1.2-.6 1.4-.4.2-1.4.3-2.9.3-1.9 0-4-.1-6.1-.2 0-2.3-.1-4.6-.2-6.8s-.4-4.4-.7-6.4c-.4-2-.9-3.9-1.5-5.6-.7-1.7-1.5-3.2-2.6-4.4-.8-.8-1.5-1.3-2.3-1.7v23.4c0 .4-.1.7-.2.9s-.4.3-1 .4c-.5.1-1.4.1-2.5.2h-5v-51.6zM104.7 51.3v4.2c0 1-.1 1.8-.2 2.3-.1.5-.2.8-.5 1s-.5.2-.9.2h-17.7v-51.8c0-.3.1-.6.2-.8.1-.2.2-.4.4-.5s.5-.2.9-.2h18.3v4.1c0 1-.1 1.8-.2 2.3-.1.5-.2.9-.5 1-.2.2-.5.2-.9.2h-9.6v12.9h9.2v3.9c0 1-.1 1.8-.2 2.4-.1.6-.2 1-.4 1.2s-.5.3-.8.3h-7.8v17.3h10.7z"/></g><g fill="#939598"><path d="M14.8 84.6v2.1c0 .5 0 .9-.1 1.1 0 .2-.1.4-.2.5-.1.1-.3.1-.4.1h-8.8v-25.6c0-.1 0-.3.1-.4l.2-.3s.2-.1.4-.1h9v2c0 .5 0 .9-.1 1.1 0 .3-.1.4-.2.5-.1.1-.3.1-.4.1h-4.8v6.4h4.5v1.9c0 .5 0 .9-.1 1.2 0 .3-.1.5-.2.6s-.2.2-.4.2h-3.8v8.5h5.3zM16.3 63.2c-.1-.4-.1-.7 0-.9.1-.2.4-.2.9-.2h3.5l1.9 12.2c.2.9.3 1.9.4 2.9.1 1 .2 1.9.4 2.9.1.9.2 1.8.3 2.6.1.8.2 1.5.3 2.2 0-.6.1-1.3.2-2.2.1-.8.2-1.7.3-2.6s.2-1.9.3-2.9l.4-2.9 1.6-11.1c0-.4.1-.7.3-.9s.4-.3.8-.3h3.7l-4.9 26.2c-.3.1-.6.1-.9.1-.3 0-.5 0-.8.1h-2c-.7 0-1.3-.2-1.6-.6-.4-.4-.6-.9-.7-1.6-.2-.8-.4-1.7-.6-2.7-.2-1.1-.4-2.2-.7-3.4-.2-1.2-.5-2.5-.7-3.8l-.7-3.9c-.6-2.9-1.2-6-1.7-9.2zM42 84.6v2.1c0 .5 0 .9-.1 1.1 0 .2-.1.4-.2.5-.1.1-.3.1-.4.1h-8.7v-25.6c0-.1 0-.3.1-.4 0-.1.1-.2.2-.3s.2-.1.4-.1h9v2c0 .5 0 .9-.1 1.1 0 .3-.1.4-.2.5-.1.1-.3.1-.4.1h-4.8v6.4h4.5v1.9c0 .5 0 .9-.1 1.2 0 .3-.1.5-.2.6s-.2.2-.4.2h-3.8v8.5h5.2zM48.3 62.1c1.2 0 2.2.1 3.1.3.9.2 1.7.6 2.3 1.2.6.6 1.1 1.4 1.4 2.4.3 1 .5 2.3.5 3.8 0 1.9-.2 3.4-.7 4.5-.5 1.1-1.1 2-1.9 2.6.3.4.6.9 1 1.5s.7 1.3 1 2.2c.3.9.6 1.9.8 3 .2 1.2.4 2.5.4 3.9 0 .2 0 .3-.1.4 0 .1-.1.2-.3.3-.1.1-.4.1-.7.2h-1.2c-.7 0-1.6 0-2.5-.1-.1-1.4-.2-2.7-.3-3.9-.2-1.1-.4-2.1-.6-2.9-.2-.8-.5-1.5-.8-2-.3-.5-.5-1-.8-1.3h-.9v9.4c0 .2 0 .4-.1.5-.1.1-.2.2-.5.2s-.7.1-1.3.1h-2.4v-25.6c0-.1 0-.3.1-.4.1-.2.3-.4.7-.4h3.8zm2.6 7.5c0-1.3-.1-2.3-.4-2.9-.3-.6-.7-.9-1.3-.9h-1v8.6h.8c.3 0 .6-.1.8-.2s.4-.4.6-.7c.2-.4.3-.8.4-1.5s.1-1.4.1-2.4zM59.9 77.6l-4.7-14.9c-.1-.2-.1-.3 0-.4 0-.1.2-.1.5-.2.3 0 .8-.1 1.5-.1h2.8l1.1 4.9c.1.5.2 1 .3 1.7s.2 1.3.3 2c.1.7.2 1.3.2 2 .1.6.1 1.2.2 1.6 0-.4.1-1 .2-1.6.1-.6.2-1.3.3-2 .1-.7.2-1.4.3-2 .1-.7.2-1.2.3-1.7l.9-4.1c0-.2.1-.3.2-.4.1-.1.3-.2.5-.2.3 0 .7-.1 1.3-.1h2.5l-4.5 15.2v10.3c0 .2 0 .4-.1.5s-.2.2-.5.2-.7.1-1.2.1h-2.5v-10.8zM78.6 66v21.6c0 .2 0 .4-.1.5-.1.1-.2.2-.5.2s-.7.1-1.3.1h-2.4v-22.4h-4.6v-3.2c0-.5.2-.7.8-.7h12.7v3.1c0 .3-.1.5-.2.6-.1.1-.3.2-.6.2h-3.8zM92.7 76.2h-3.6v11.4c0 .2 0 .4-.1.5s-.2.2-.4.2c-.3 0-.7.1-1.2.1h-2.5v-25.6c0-.2 0-.3.1-.4 0-.1.2-.2.4-.2.3 0 .7-.1 1.2-.1h2.5v10.3h3.6v-9.6c0-.2 0-.3.1-.4 0-.1.2-.2.4-.2.3 0 .7-.1 1.2-.1h2.5v25.5c0 .2 0 .4-.1.5s-.2.2-.4.2c-.3 0-.7.1-1.2.1h-2.5v-12.2zM99.1 63.9c0-.4 0-.8.1-1 0-.2.2-.4.5-.5.3-.1.7-.2 1.3-.2h2.4v25.5c0 .2 0 .4-.1.5 0 .1-.2.2-.5.2s-.7.1-1.3.1h-2.5v-24.6zM111.6 78.3c-.2-.5-.4-1.1-.6-1.8l-.6-2.1c-.2-.7-.4-1.5-.5-2.2l-.5-2.1c.2 1.5.3 3 .4 4.5.1 1.5.2 2.8.2 4v9c0 .2 0 .4-.1.5 0 .1-.2.2-.5.2s-.7.1-1.2.1h-2.4v-25.6c0-.5.2-.7.8-.7h3.3l3.9 9.9c.2.6.4 1.1.6 1.8.2.6.4 1.3.6 2 .2.7.4 1.3.5 2 .2.7.3 1.3.4 1.9-.2-1.6-.3-3-.4-4.2-.1-1.3-.1-2.5-.1-3.8v-8.7c0-.2 0-.3.1-.4 0-.1.2-.2.5-.2s.7-.1 1.3-.1h2.4v25.5c0 .5-.2.8-.7.8h-3.3l-4.1-10.3zM129.5 61.7c1.4 0 2.4.2 3.1.6.7.4 1 .9 1 1.5 0 .5-.1 1-.2 1.4-.1.4-.2.8-.4 1.2-.3-.2-.7-.4-1.2-.5-.5-.1-1-.2-1.5-.2-.9 0-1.7.2-2.3.5-.6.4-1.1.9-1.4 1.8s-.6 1.8-.7 3.1c-.1 1.3-.2 2.8-.2 4.6 0 1.9 0 3.5.1 4.6.1 1.2.2 2 .4 2.7.2.6.5 1.1.8 1.3.3.2.8.3 1.3.3.4 0 .7 0 .8-.1.2-.1.3-.2.4-.2v-8.4h-1.7v-2.7c0-.5.3-.8.9-.8h4.8v15.1c-.6.4-1.3.7-2.2.9-.9.2-1.9.3-2.9.3-1.4 0-2.6-.2-3.5-.6-.9-.4-1.6-1-2.2-2s-.9-2.2-1.1-3.8-.3-3.7-.3-6.2c0-3 .2-5.5.6-7.3s.9-3.3 1.6-4.3c.7-1 1.6-1.7 2.6-2.1.9-.5 2.1-.7 3.4-.7z"/></g><g fill="#DEDDDD"><path d="M98.4 42.6c0-.8 0-1.6.1-2.1s.2-1 .4-1.4c.2-.3.5-.6.8-.7.3-.1.7-.2 1.1-.2.4 0 .8.1 1 .2s.5.4.7.7c.2.3.3.8.4 1.3.1.6.1 1.3.1 2.1 0 .9 0 1.6-.1 2.2-.1.6-.2 1.1-.4 1.4-.2.4-.4.6-.7.8-.3.1-.6.2-1.1.2-.4 0-.8-.1-1-.2s-.5-.4-.7-.7c-.2-.3-.3-.8-.4-1.4-.2-.5-.2-1.3-.2-2.2zm1.6.3v1.3c0 .3 0 .6.1.9 0 .2.1.4.2.5.1.1.2.2.4.2s.3-.1.4-.2c.1-.1.2-.3.2-.5s.1-.6.1-1v-2.8c0-.4 0-.7-.1-.9 0-.2-.1-.4-.2-.5-.1-.1-.2-.2-.4-.2-.1 0-.3.1-.4.2s-.2.3-.2.6c-.1.3-.1.6-.1 1v1.4zM106.2 43.7l-.2-.6s-.1-.5-.2-.7-.1-.5-.2-.7l-.2-.7c.1.5.1 1 .1 1.5s.1.9.1 1.3v3.2s-.1.1-.2.1h-1.2000000000000002v-8.5c0-.2.1-.2.2-.2h1.1l1.3 3.3.2.6c.1.2.1.4.2.7s.1.4.2.7c.1.2.1.4.1.6-.1-.5-.1-1-.1-1.4v-4.3s.1-.1.2-.1h1.2000000000000002v8.5c0 .2-.1.2-.2.2h-1.1l-1.3-3.5z"/></g><path fill="#D8D9DA" d="M125 75.1s.6 1.9.8 2.3c.3.5.9 1.2 2.6 1.2 1.6 0 .9-2 0-4.5-.8-2.5-3.3 0-3.4 1zM116.6 75.1s1.2 1.2.8 1.8c-.3.5-5.8 2.4-7.6 2.2-.3 0-.3-.3-.3-.5 0-.8 1.2-1.2 2.6-2.1 1.3-.9 1-1.6 1-1.6l3.5.2z"/><path fill="#A7A9AC" d="M112.8 75.6s.2.1 0 .5.4.2 1.7 0c1.3-.2 1.9-.2 2.2-.2.3 0 .2-1-.2-1l-3.7.7zM125 74.3s.2.1 0 .5.4.2 1.7 0c1.3-.2 1.9-.2 2.2-.2.3 0 .2-1-.2-1-.3 0-3.7.7-3.7.7z"/><path fill="#FDDFBB" d="M115.9 54.6c-.5 1.6-2.5 6-2.8 6.5-.2.5-.9.6-.8 1.6.1 1 3 .8 2.6-1-.4-1.8 2.8-3.9 2.9-5 .1-1.1.3-3.4.3-3.4s-1.5-1-2.2 1.3z"/><defs><path id="a" d="M130.5 48.9c-.2-.9-1.1-1.7-2.1-1.7h-9.5c-1 0-1.9.8-2.1 1.7l-1 4.1c-.2.9.4 1.7 1.3 1.7h.4l.1 5.4 11.6 1.5.4-6.6h.4c1 0 1.6-.7 1.4-1.7l-.9-4.4z"/></defs><clipPath id="b"><use xlink:href="#a" overflow="visible"/></clipPath><path clip-path="url(#b)" fill="url(#SVGID_4_)" d="M114.8 44.8h17.6v17.6h-17.6z"/><defs><path id="c" d="M130.5 48.9c-.2-.9-1.1-1.7-2.1-1.7h-9.5c-1 0-1.9.8-2.1 1.7l-1 4.1c-.2.9.4 1.7 1.3 1.7h.4l.1 5.4 11.6 1.5.4-6.6h.4c1 0 1.6-.7 1.4-1.7l-.9-4.4z"/></defs><use xlink:href="#c" overflow="visible" fill="#64BC46"/><clipPath id="d"><use xlink:href="#c" overflow="visible"/></clipPath><path clip-path="url(#d)" fill="#64BC46" d="M114.8 44.8h17.6v17.6h-17.6z"/><path fill="#E5CBAB" d="M122.4 46.5l-.2.9 1.7.6 1.5-.8-.3-1z"/><ellipse fill="#FDDFBB" cx="123.8" cy="43.8" rx="2.6" ry="3.6"/><path opacity=".17" d="M122 46.8l-1.1 1.4 2.7 1.3.3-1.3zM125.8 46.8l1.1 1.4-2.7 1.3-.3-1.3z"/><path fill="#fff" d="M122 46.7l-1.1 1.4 2.7 1.2.3-1.3zM125.8 46.7l1.1 1.4-2.7 1.2-.3-1.3z"/><path opacity=".8" fill="#E5CBAB" d="M123.6 39.3c-.7 0-1.1.3-1.3.5s-.6.3-.6.7c0 .4-.9.8-.7 1.7.1.9.1 1.8.1 2l.3.1.2-1.8s0-.2.4-.3c.4-.1.8-.1 1.5-.2s.4.5.9.3.9-.5 1-.4c.1.1.7 0 .8.2.1.2.4 1.8.4 1.8s.4 0 .2-.7c-.2-.8-.2-1.1-.2-1.4s0-.7-.2-1-.6-.3-.6-.7c-.1-.4-.5-.6-.8-.6s-1.3-.2-1.4-.2z"/><path fill="#DEC306" d="M123.6 39.1c-.7 0-1.1.3-1.3.5s-.6.3-.6.7c0 .4-.9.8-.7 1.7.1.9.1 1.8.1 2l.3.1.2-1.8s0-.2.4-.3c.4-.1.8-.1 1.5-.2.6-.1.4.5.9.3s.9-.5 1-.4c.1.1.7 0 .8.2.1.2.4 1.8.4 1.8s.4 0 .2-.7c-.2-.8-.2-1.1-.2-1.4s0-.7-.2-1-.6-.3-.6-.7c-.1-.4-.5-.6-.8-.6s-1.3-.2-1.4-.2z"/><path fill="#5375B9" d="M122.2 58.6h4.1c1.8 0 2.8.8 3.2 1.1.4.3 1.3 2.1 1.3 2.6s0 1.6-.3 2.7-1 5.1-1.4 6.1c-.4 1-.1 2.2-.1 2.2s.3-.2.3.2c.1.4.2 1-.5 1.8.1-.5-.8-.5-2.2-.4-1.3.1-2.2 1.4-2.4 1-.2-.4 0-1 .3-1.3.3-.3.7-3.1 1-4 .3-.9-.1-3.9 0-4.9-.2-.5-.2-1.8 0-2.5-.3-.4-.8-.8-.8-.8s-1.3 0-2.7-.1l.2-3.7z"/><path fill="#6B84C2" d="M129.8 60c-.2-.2-.4-.4-.7-.6-.5-.4-1.5-.8-2.8-.8h-4c-.1.3-.1.7.2.8.9.4 2.7.7 3.5 1 .7.4 5.2 2.7 4.3.4-.1-.3-.3-.5-.5-.8z"/><path fill="#466EB6" d="M122.3 62.2c-1.4 0-2.8 0-2.9.1-.1.2-1 .5-1.4.8s-.5.6-1.2 1.4c-.3.4-.3 5.2-.3 5.9s.2 2.8.5 4c.3 1.2.6 1.8-1.3 1.4s-3.7 1-3.8.3c-.1-.7-.2-1.6-.2-2.4 0-.8.5-3.2.6-4.9.1-1.8-.3-7.4.3-8.3 1-1.6 3.9-1.7 5.3-1.8.8-.1 2.7-.1 4.5 0l-.1 3.5z"/><path fill="#3D5F9F" d="M116.2 61c-1 1-.1 9.4.3 10.5-.1-.5-.1-1-.1-1.3 0-.7 0-5.5.3-5.9.7-.9.8-1.2 1.2-1.4.4-.3 1.3-.6 1.4-.8.1-.1 1.5-.1 2.9-.1l.1-2.7c-.1.1-5.4 1-6.1 1.7z"/><path opacity=".17" d="M122.4 58.9c3.2 0 5.1-.3 5.1-.3l-9.8-.1c.1 0 1.5.4 4.7.4z"/><path fill="#6B84C2" d="M124.2 74.3c0 .3 0 .9.2 1.1s1.5-1.1 2.7-1.1 1.8.2 1.8.5.9-1.1.4-1.9c-.5-.8-1.1 0-2.4.3-1.3.2-2.8.2-2.7 1.1zM111.8 74.9c-.2.2-.2 1.3.3 1.2.5-.1 1.7-.7 2.4-.7s2.3.2 2.5.3c.2.1.4-.9.4-1.1 0-.2-1.8-.6-3.2-.3-1.4.3-2.1.3-2.4.6z"/><path opacity=".17" d="M117.4 54.5v-1.8l-.3 1.7zM129.6 55.1l-.2-1.6.6 1.5zM117.4 54.9l1.5 3.7h-1.4zM129.6 54.9l-.3 4.5-1.4-.6 1.5-5z"/><path fill="#E5CBAB" d="M130.6 62.1"/></svg>